<?xml version="1.0" encoding="UTF-8"?>
<svg xmlns="http://www.w3.org/2000/svg" xmlns:xlink="http://www.w3.org/1999/xlink" viewBox="0 0 128 128" width="32px" height="32px">
<g id="surface46501409">
<path style=" stroke:none;fill-rule:nonzero;fill:#FFFFFF;" d="M 117.332031 96 C 123.222656 96 128 100.777344 128 106.667969 C 128 112.558594 123.222656 117.332031 117.332031 117.332031 C 114.128906 117.332031 13.871094 117.332031 10.667969 117.332031 C 4.777344 117.332031 0 112.558594 0 106.667969 C 0 100.777344 4.777344 96 10.667969 96 C 13.871094 96 114.128906 96 117.332031 96 Z M 117.332031 53.332031 C 123.222656 53.332031 128 58.109375 128 64 C 128 69.890625 123.222656 74.667969 117.332031 74.667969 C 114.128906 74.667969 13.871094 74.667969 10.667969 74.667969 C 4.777344 74.667969 0 69.890625 0 64 C 0 58.109375 4.777344 53.332031 10.667969 53.332031 C 13.871094 53.332031 114.128906 53.332031 117.332031 53.332031 Z M 117.332031 10.667969 C 123.222656 10.667969 128 15.441406 128 21.332031 C 128 27.222656 123.222656 32 117.332031 32 C 114.128906 32 13.871094 32 10.667969 32 C 4.777344 32 0 27.222656 0 21.332031 C 0 15.441406 4.777344 10.667969 10.667969 10.667969 C 13.871094 10.667969 114.128906 10.667969 117.332031 10.667969 Z M 117.332031 10.667969 "/>
</g>
</svg>
