<svg xmlns="http://www.w3.org/2000/svg" viewBox="0 0 128 128" width="32" height="32"><path d="M117.332 96c5.89 0 10.668 4.777 10.668 10.668 0 5.89-4.777 10.664-10.668 10.664H10.668C4.778 117.332 0 112.559 0 106.668 0 100.778 4.777 96 10.668 96h106.664zm0-42.668C123.222 53.332 128 58.109 128 64c0 5.89-4.777 10.668-10.668 10.668H10.668C4.778 74.668 0 69.891 0 64c0-5.89 4.777-10.668 10.668-10.668h106.664zm0-42.664c5.89 0 10.668 4.773 10.668 10.664C128 27.222 123.223 32 117.332 32H10.668C4.778 32 0 27.223 0 21.332c0-5.89 4.777-10.664 10.668-10.664h106.664zm0 0" fill="#fff"/></svg>