<?xml version="1.0" encoding="UTF-8"?>
<svg xmlns="http://www.w3.org/2000/svg" xmlns:xlink="http://www.w3.org/1999/xlink" viewBox="0 0 90 90" width="20px" height="20px">
<g id="surface46540141">
<path style=" stroke:none;fill-rule:nonzero;fill:#FFFFFF;" d="M 11.398438 -1.199219 C 10.324219 -1.199219 9.25 -0.789062 8.429688 0.03125 L 0.03125 8.429688 C -1.613281 10.074219 -1.613281 12.730469 0.03125 14.371094 L 30.660156 45 L 0.03125 75.628906 C -1.613281 77.273438 -1.613281 79.929688 0.03125 81.570312 L 8.429688 89.96875 C 10.074219 91.613281 12.730469 91.613281 14.371094 89.96875 L 45 59.339844 L 75.628906 89.96875 C 77.269531 91.613281 79.929688 91.613281 81.570312 89.96875 L 89.96875 81.570312 C 91.613281 79.925781 91.613281 77.269531 89.96875 75.628906 L 59.339844 45 L 89.96875 14.371094 C 91.613281 12.730469 91.613281 10.070312 89.96875 8.429688 L 81.570312 0.03125 C 79.925781 -1.613281 77.269531 -1.613281 75.628906 0.03125 L 45 30.660156 L 14.371094 0.03125 C 13.546875 -0.789062 12.476562 -1.199219 11.398438 -1.199219 Z M 11.398438 -1.199219 "/>
</g>
</svg>
